<svg width="18" height="19" viewBox="0 0 18 19" fill="none" xmlns="http://www.w3.org/2000/svg">
<g clip-path="url(#clip0_1481_423)">
<g clip-path="url(#clip1_1481_423)">
<g clip-path="url(#clip2_1481_423)">
<path d="M3.90472 6.54883H0.291016V18.0727H3.90472V6.54883Z" fill="white"/>
<path d="M13.6816 6.29915C13.5484 6.28249 13.4069 6.27417 13.2653 6.26584C11.242 6.18258 10.1013 7.38159 9.70159 7.89783C9.59335 8.03938 9.54339 8.12265 9.54339 8.12265V6.58225H6.08789V18.1062H9.54339H9.70159C9.70159 16.9321 9.70159 15.7664 9.70159 14.5924C9.70159 13.9596 9.70159 13.3267 9.70159 12.6939C9.70159 11.9112 9.64331 11.0786 10.0346 10.3625C10.3677 9.76297 10.9672 9.46322 11.6417 9.46322C13.64 9.46322 13.6816 11.2701 13.6816 11.4366C13.6816 11.445 13.6816 11.4533 13.6816 11.4533V18.1561H17.2953V10.6373C17.2953 8.06436 15.9881 6.54894 13.6816 6.29915Z" fill="white"/>
<path d="M2.09827 5.0569C3.25712 5.0569 4.19656 4.11747 4.19656 2.95863C4.19656 1.79978 3.25712 0.860352 2.09827 0.860352C0.939426 0.860352 0 1.79978 0 2.95863C0 4.11747 0.939426 5.0569 2.09827 5.0569Z" fill="white"/>
</g>
</g>
</g>
<defs>
<clipPath id="clip0_1481_423">
<rect width="18" height="18" fill="white" transform="translate(0 0.860352)"/>
</clipPath>
<clipPath id="clip1_1481_423">
<rect width="18" height="18" fill="white" transform="translate(0 0.860352)"/>
</clipPath>
<clipPath id="clip2_1481_423">
<rect width="18" height="18" fill="white" transform="translate(0 0.860352)"/>
</clipPath>
</defs>
</svg>
