<svg width="17" height="17" viewBox="0 0 17 17" fill="none" xmlns="http://www.w3.org/2000/svg">
<path fill-rule="evenodd" clip-rule="evenodd" d="M16.2191 1.18793C16.1603 1.04577 16.0734 0.912521 15.9582 0.796701L15.9556 0.794122L15.9531 0.791551C15.7335 0.573326 15.431 0.438477 15.097 0.438477H1.60536C0.934751 0.438477 0.391113 0.982115 0.391113 1.65273C0.391113 2.32334 0.934751 2.86697 1.60536 2.86697H12.1656L0.746759 14.2858C0.272565 14.76 0.272565 15.5288 0.746759 16.003C1.22095 16.4772 1.98977 16.4772 2.46397 16.003L13.8828 4.58418V15.1444C13.8828 15.815 14.4264 16.3586 15.097 16.3586C15.7676 16.3586 16.3113 15.815 16.3113 15.1444V1.65273C16.3113 1.48809 16.2785 1.3311 16.2191 1.18793Z" fill="white"/>
</svg>
