<svg width="199" height="44" viewBox="0 0 199 44" fill="none" xmlns="http://www.w3.org/2000/svg">
<path fill-rule="evenodd" clip-rule="evenodd" d="M146.441 27.752C153.209 18.4619 159.887 9.29673 166.574 0.118286C166.933 0.345979 166.761 0.678671 166.761 0.939523C166.771 14.411 166.76 27.8835 166.792 41.355C166.794 42.2779 166.516 42.4747 165.659 42.4503C163.579 42.3907 161.496 42.3896 159.416 42.4515C158.588 42.4747 158.335 42.2823 158.343 41.4069C158.389 36.1855 158.366 30.964 158.366 25.3579C154.297 30.9684 150.418 36.317 146.441 41.8004C142.498 36.3734 138.604 31.0149 134.679 25.6143C134.327 25.9504 134.49 26.3438 134.489 26.681C134.476 31.5631 134.456 36.4441 134.502 41.3251C134.511 42.2237 134.269 42.4802 133.373 42.4525C131.257 42.3862 129.136 42.4116 127.017 42.4426C126.381 42.4525 126.093 42.363 126.094 41.6015C126.118 27.8294 126.113 14.0573 126.306 0.160281C132.986 9.31552 139.667 18.4708 146.441 27.752Z" fill="#620002"/>
<path fill-rule="evenodd" clip-rule="evenodd" d="M33.4034 43.3699C24.9965 35.3631 16.794 27.5508 8.41468 19.5716C8.38815 20.1563 8.35389 20.5442 8.35278 20.93C8.34947 27.6679 8.3152 34.4048 8.38373 41.1427C8.39589 42.3475 8.03004 42.5907 6.92584 42.5431C4.88544 42.4558 2.83842 42.5033 0.794716 42.5277C0.223273 42.5343 0 42.3806 0 41.7672C0.0154743 27.9531 0.0121601 14.139 0.0121601 0.0275879C8.37158 7.98578 16.5619 15.7837 24.7688 23.596C25.16 23.1716 24.9865 22.7394 24.9865 22.3547C24.9998 15.5416 25.0142 8.72854 24.9744 1.91544C24.9688 1.01351 25.2153 0.776979 26.0973 0.805717C28.1013 0.87314 30.1118 0.880886 32.1146 0.80462C33.1182 0.765935 33.4333 1.00689 33.4288 2.07904C33.3846 13.3222 33.4023 24.5631 33.4023 35.8052C33.4034 38.2258 33.4034 40.6442 33.4034 43.3699Z" fill="#620002"/>
<path fill-rule="evenodd" clip-rule="evenodd" d="M77.4468 42.4315C74.4481 42.4315 71.6539 42.4161 68.8597 42.4426C68.2982 42.4481 68.1722 42.0867 68.0053 41.7087C67.3001 40.1192 66.5739 38.5398 65.9063 36.936C65.6698 36.3678 65.3702 36.139 64.7314 36.1435C60.5666 36.1722 56.4029 36.1766 52.2392 36.1401C51.5385 36.1335 51.2356 36.4087 50.9858 37.0023C50.3138 38.6039 49.581 40.1823 48.8913 41.7772C48.7122 42.1906 48.5221 42.4481 47.9949 42.4448C45.2338 42.4183 42.4728 42.4315 39.5039 42.4315C45.8229 28.2892 52.0878 14.2684 58.4621 0C64.8496 14.2761 71.1145 28.2781 77.4468 42.4315ZM58.4897 20.0646C57.1866 23.0489 55.9752 25.8243 54.7052 28.7324C57.0241 28.7324 59.1651 28.6992 61.3049 28.7501C62.1848 28.7711 62.1184 28.4516 61.8487 27.836C60.7456 25.3214 59.668 22.7958 58.4897 20.0646Z" fill="#620002"/>
<path fill-rule="evenodd" clip-rule="evenodd" d="M198.987 4.02222C198.987 16.7896 198.984 29.1911 198.999 41.5915C198.999 42.2138 198.853 42.4559 198.186 42.4459C195.918 42.4094 193.649 42.4072 191.381 42.4459C190.714 42.4581 190.569 42.2248 190.57 41.6015C190.587 30.7507 190.582 19.8988 190.582 9.04694C190.582 8.67224 190.517 8.28316 191.041 8.15716C193.934 7.46966 196.583 6.27483 198.987 4.02222Z" fill="#620002"/>
<path fill-rule="evenodd" clip-rule="evenodd" d="M174.454 5.04126C176.897 6.92359 179.452 7.99685 182.238 8.49424C182.814 8.59703 182.878 8.87004 182.864 9.33426C182.844 10.0151 182.859 10.696 182.859 11.3791C182.859 21.3346 182.846 31.29 182.88 41.2444C182.884 42.1563 182.701 42.4912 181.722 42.4569C179.568 42.3818 177.408 42.4215 175.25 42.4425C174.71 42.4481 174.44 42.3619 174.441 41.7153C174.458 29.5669 174.454 17.4185 174.454 5.04126Z" fill="#620002"/>
<path fill-rule="evenodd" clip-rule="evenodd" d="M119.841 42.4315C116.843 42.4315 114.048 42.4161 111.254 42.4426C110.693 42.4481 110.567 42.0867 110.4 41.7087C109.695 40.1192 108.968 38.5398 108.301 36.936C108.064 36.3678 107.765 36.139 107.126 36.1435C102.961 36.1722 98.7974 36.1766 94.6337 36.1401C93.933 36.1335 93.6301 36.4087 93.3803 37.0023C92.7083 38.6039 91.9755 40.1823 91.2858 41.7772C91.1067 42.1906 90.9166 42.4481 90.3894 42.4448C87.6283 42.4183 84.8673 42.4315 81.8984 42.4315C88.2175 28.2892 94.4823 14.2684 100.857 0C107.245 14.2761 113.51 28.2781 119.841 42.4315ZM100.885 20.0646C99.5822 23.0489 98.3708 25.8243 97.1008 28.7324C99.4197 28.7324 101.561 28.6992 103.701 28.7501C104.58 28.7711 104.514 28.4516 104.244 27.836C103.14 25.3214 102.062 22.7958 100.885 20.0646Z" fill="#620002"/>
</svg>
