<svg width="199" height="45" viewBox="0 0 199 45" fill="none" xmlns="http://www.w3.org/2000/svg">
<path fill-rule="evenodd" clip-rule="evenodd" d="M146.441 28.412C153.209 19.1219 159.887 9.95677 166.574 0.77832C166.933 1.00601 166.761 1.33871 166.761 1.59956C166.771 15.071 166.76 28.5436 166.792 42.015C166.794 42.9379 166.516 43.1347 165.659 43.1104C163.579 43.0507 161.496 43.0496 159.416 43.1115C158.588 43.1347 158.335 42.9424 158.343 42.067C158.389 36.8455 158.366 31.624 158.366 26.0179C154.297 31.6285 150.418 36.977 146.441 42.4605C142.498 37.0334 138.604 31.6749 134.679 26.2744C134.327 26.6104 134.49 27.0039 134.489 27.341C134.476 32.2231 134.456 37.1041 134.502 41.9852C134.511 42.8838 134.269 43.1402 133.373 43.1126C131.257 43.0463 129.136 43.0717 127.017 43.1026C126.381 43.1126 126.093 43.023 126.094 42.2615C126.118 28.4894 126.113 14.7173 126.306 0.820316C132.986 9.97555 139.667 19.1308 146.441 28.412Z" fill="white"/>
<path fill-rule="evenodd" clip-rule="evenodd" d="M33.4034 44.0298C24.9965 36.023 16.794 28.2107 8.41468 20.2315C8.38815 20.8162 8.35389 21.2042 8.35278 21.5899C8.34947 28.3278 8.3152 35.0647 8.38373 41.8026C8.39589 43.0074 8.03004 43.2506 6.92584 43.203C4.88544 43.1157 2.83842 43.1633 0.794716 43.1876C0.223273 43.1942 0 43.0406 0 42.4271C0.0154743 28.613 0.0121601 14.7989 0.0121601 0.6875C8.37158 8.64569 16.5619 16.4436 24.7688 24.2559C25.16 23.8315 24.9865 23.3993 24.9865 23.0147C24.9998 16.2016 25.0142 9.38845 24.9744 2.57535C24.9688 1.67342 25.2153 1.43689 26.0973 1.46563C28.1013 1.53305 30.1118 1.5408 32.1146 1.46453C33.1182 1.42585 33.4333 1.6668 33.4288 2.73895C33.3846 13.9821 33.4023 25.2231 33.4023 36.4651C33.4034 38.8857 33.4034 41.3041 33.4034 44.0298Z" fill="white"/>
<path fill-rule="evenodd" clip-rule="evenodd" d="M77.4468 43.0917C74.4481 43.0917 71.6539 43.0762 68.8597 43.1027C68.2982 43.1083 68.1722 42.7468 68.0053 42.3688C67.3001 40.7794 66.5739 39.1999 65.9063 37.5961C65.6698 37.028 65.3702 36.7992 64.7314 36.8036C60.5666 36.8324 56.4029 36.8368 52.2392 36.8003C51.5385 36.7937 51.2356 37.0689 50.9858 37.6624C50.3138 39.264 49.581 40.8424 48.8913 42.4374C48.7122 42.8507 48.5221 43.1083 47.9949 43.105C45.2338 43.0784 42.4728 43.0917 39.5039 43.0917C45.8229 28.9493 52.0878 14.9285 58.4621 0.660156C64.8496 14.9363 71.1145 28.9383 77.4468 43.0917ZM58.4897 20.7247C57.1866 23.7091 55.9752 26.4845 54.7052 29.3926C57.0241 29.3926 59.1651 29.3594 61.3049 29.4102C62.1848 29.4312 62.1184 29.1118 61.8487 28.4962C60.7456 25.9816 59.668 23.456 58.4897 20.7247Z" fill="white"/>
<path fill-rule="evenodd" clip-rule="evenodd" d="M198.987 4.68262C198.987 17.45 198.984 29.8515 198.999 42.2519C198.999 42.8742 198.853 43.1163 198.186 43.1063C195.918 43.0698 193.649 43.0676 191.381 43.1063C190.714 43.1185 190.569 42.8852 190.57 42.2619C190.587 31.4111 190.582 20.5592 190.582 9.70734C190.582 9.33264 190.517 8.94356 191.041 8.81756C193.934 8.13006 196.583 6.93523 198.987 4.68262Z" fill="white"/>
<path fill-rule="evenodd" clip-rule="evenodd" d="M174.454 5.70117C176.897 7.58351 179.452 8.65676 182.238 9.15415C182.814 9.25695 182.878 9.52995 182.864 9.99418C182.844 10.675 182.859 11.3559 182.859 12.039C182.859 21.9945 182.846 31.9499 182.88 41.9043C182.884 42.8162 182.701 43.1511 181.722 43.1168C179.568 43.0417 177.408 43.0815 175.25 43.1025C174.71 43.108 174.44 43.0218 174.441 42.3752C174.458 30.2268 174.454 18.0784 174.454 5.70117Z" fill="white"/>
<path fill-rule="evenodd" clip-rule="evenodd" d="M119.841 43.0917C116.843 43.0917 114.048 43.0762 111.254 43.1027C110.693 43.1083 110.567 42.7468 110.4 42.3688C109.695 40.7794 108.968 39.1999 108.301 37.5961C108.064 37.028 107.765 36.7992 107.126 36.8036C102.961 36.8324 98.7974 36.8368 94.6337 36.8003C93.933 36.7937 93.6301 37.0689 93.3803 37.6624C92.7083 39.264 91.9755 40.8424 91.2858 42.4374C91.1067 42.8507 90.9166 43.1083 90.3894 43.105C87.6283 43.0784 84.8673 43.0917 81.8984 43.0917C88.2175 28.9493 94.4823 14.9285 100.857 0.660156C107.245 14.9363 113.51 28.9383 119.841 43.0917ZM100.885 20.7247C99.5822 23.7091 98.3708 26.4845 97.1008 29.3926C99.4197 29.3926 101.561 29.3594 103.701 29.4102C104.58 29.4312 104.514 29.1118 104.244 28.4962C103.14 25.9816 102.062 23.456 100.885 20.7247Z" fill="white"/>
</svg>
